# xmcd
#
# Track frame offsets: 
#        150
#        15329
#        29992
#        48246
#        61680
#        73583
#        86770
#        100896
#        116645
#        133429
#        148791
#        166680
#        182114
#
# Disc length: 2679 seconds
#
# Revision: 0
# Processed by: cddbd v1.5.2PL0 Copyright (c) Steve Scherf et al.
# Submitted via: ExactAudioCopy v0.95b4
#
DISCID=b70a750d
DTITLE=Steinar Engelbrektson - Minna Som Eg Har
DYEAR=2009
DGENRE=Country
TTITLE0=Minna Som Eg Har
TTITLE1=Carola
TTITLE2=Ikkje Gje Opp Håpet
TTITLE3=Alle Vil Til Himmels
TTITLE4=Hepp Hepp Fyr
TTITLE5=Den Gamle Fela
TTITLE6=Barbesøk
TTITLE7=Berre Du
TTITLE8=Engel i Jeans
TTITLE9=Kvinne i Kvitt
TTITLE10=Eg Vil Gje Deg Ei Hand
TTITLE11=Gullkort i Frå Banken
TTITLE12=Enkel Mann
EXTD=
EXTT0=
EXTT1=
EXTT2=
EXTT3=
EXTT4=
EXTT5=
EXTT6=
EXTT7=
EXTT8=
EXTT9=
EXTT10=
EXTT11=
EXTT12=
PLAYORDER=
